<svg viewBox="0 0 1600 900" xmlns="http://www.w3.org/2000/svg">
  <defs>
    <linearGradient id="c3-base" x1="0%" y1="0%" x2="0%" y2="100%">
      <stop offset="0%" stop-color="#EAF6F8"/><stop offset="100%" stop-color="#FBF6EC"/>
    </linearGradient>
    <radialGradient id="c3-glow1" cx="20%" cy="18%" r="42%"><stop offset="0%" stop-color="#9FD8E6" stop-opacity="0.65"/><stop offset="100%" stop-color="#9FD8E6" stop-opacity="0"/></radialGradient>
    <radialGradient id="c3-glow2" cx="82%" cy="80%" r="46%"><stop offset="0%" stop-color="#E2938C" stop-opacity="0.55"/><stop offset="100%" stop-color="#E2938C" stop-opacity="0"/></radialGradient>
    <radialGradient id="c3-glow3" cx="80%" cy="12%" r="26%"><stop offset="0%" stop-color="#CDEEF5" stop-opacity="0.7"/><stop offset="100%" stop-color="#CDEEF5" stop-opacity="0"/></radialGradient>
    <filter id="c3-blur"><feGaussianBlur stdDeviation="30"/></filter>
  </defs>
  <rect width="1600" height="900" fill="url(#c3-base)"/>
  <g filter="url(#c3-blur)">
    <ellipse cx="340" cy="220" rx="280" ry="210" fill="url(#c3-glow1)"/>
    <ellipse cx="1280" cy="700" rx="300" ry="220" fill="url(#c3-glow2)"/>
    <ellipse cx="1200" cy="130" rx="200" ry="150" fill="url(#c3-glow3)"/>
  </g>
  <!-- gentle wave bands, like a shoreline -->
  <g fill="none" stroke="#9FD8E6" stroke-width="6" opacity="0.4">
    <path d="M0,560 C300,540 500,590 800,560 C1100,530 1350,580 1600,550"/>
    <path d="M0,610 C300,590 500,640 800,610 C1100,580 1350,630 1600,600"/>
  </g>
  <g fill="none" stroke="#E2938C" stroke-width="5" opacity="0.3">
    <path d="M0,760 C320,730 560,800 850,760 C1140,720 1380,780 1600,750"/>
  </g>
  <g fill="#9FD8E6" opacity="0.5">
    <circle cx="240" cy="420" r="5"/><circle cx="1360" cy="380" r="5"/>
  </g>
  <g fill="#E2938C" opacity="0.5">
    <circle cx="700" cy="260" r="5"/><circle cx="1050" cy="300" r="4"/>
  </g>
</svg>
